<?xml version="1.0" standalone="no"?>
<!DOCTYPE svg PUBLIC "-//W3C//DTD SVG 20010904//EN"
 "http://www.w3.org/TR/2001/REC-SVG-20010904/DTD/svg10.dtd">
<svg version="1.0" xmlns="http://www.w3.org/2000/svg"
 width="668.000000pt" height="182.000000pt" viewBox="0 0 668.000000 182.000000"
 preserveAspectRatio="xMidYMid meet">

<g transform="translate(0.000000,182.000000) scale(0.100000,-0.100000)"
fill="#000000" stroke="none">
<path d="M294 1512 c-39 -25 -36 -90 5 -111 30 -17 50 -13 77 14 24 25 28 25
184 25 187 0 180 5 180 -118 0 -79 0 -80 -28 -85 -25 -5 -31 -13 -43 -59 -17
-63 -33 -69 -86 -34 -21 14 -41 26 -45 26 -17 0 -88 -74 -88 -92 0 -10 11 -35
25 -55 32 -47 21 -68 -42 -79 -42 -8 -48 -12 -51 -37 l-3 -27 -92 0 c-140 -1
-147 -11 -147 -216 0 -144 -1 -147 -25 -170 -30 -28 -32 -67 -5 -94 26 -26 64
-26 90 0 27 27 25 66 -5 94 -25 23 -25 26 -25 174 0 186 -3 182 120 182 l89 0
3 -27 c3 -25 9 -29 51 -38 65 -14 77 -35 43 -80 -14 -18 -26 -42 -26 -53 0
-18 70 -92 88 -92 4 0 24 12 45 26 53 35 68 29 87 -36 14 -48 19 -55 43 -58
l27 -3 0 -95 c0 -136 -2 -134 196 -134 154 0 157 0 180 -25 26 -28 69 -33 99
-11 23 17 24 71 2 93 -26 26 -77 21 -101 -10 l-22 -27 -147 0 c-186 0 -187 1
-187 124 0 85 0 85 27 88 24 3 29 10 43 58 19 65 34 71 87 36 21 -14 41 -26
45 -26 18 0 88 74 88 92 0 11 -12 35 -26 53 -34 45 -22 66 43 80 42 9 48 13
51 38 l3 27 95 0 c87 0 97 2 119 25 24 24 25 28 25 181 0 154 0 157 25 180 14
13 25 34 25 49 0 32 -33 65 -65 65 -60 0 -89 -84 -40 -116 25 -16 25 -17 25
-173 0 -109 -4 -161 -12 -169 -8 -8 -46 -12 -104 -12 l-93 0 -3 27 c-3 25 -9
29 -51 37 -63 11 -74 32 -42 79 14 20 25 45 25 55 0 18 -71 92 -88 92 -4 0
-24 -12 -45 -26 -53 -35 -69 -29 -86 34 -12 46 -18 54 -43 59 l-28 6 0 93 c0
136 4 134 -205 134 -138 0 -165 2 -165 15 0 27 -67 47 -96 27z m61 -28 c19
-20 16 -43 -7 -58 -21 -13 -51 2 -56 26 -3 16 23 48 38 48 5 0 16 -7 25 -16z
m1020 -199 c0 -27 -3 -30 -30 -30 -21 0 -31 5 -33 18 -6 33 6 49 35 45 24 -3
28 -8 28 -33z m-571 -120 c7 -45 33 -75 66 -75 8 0 33 12 54 26 l38 26 29 -28
c35 -34 36 -40 4 -87 -24 -35 -25 -38 -10 -67 14 -28 27 -34 80 -42 17 -3 20
-11 20 -53 l0 -49 -43 -9 c-32 -6 -46 -15 -57 -38 -15 -28 -14 -31 10 -66 32
-47 31 -53 -4 -87 l-29 -28 -38 26 c-21 14 -46 26 -54 26 -33 0 -59 -30 -66
-75 l-6 -45 -48 0 -48 0 -6 45 c-7 45 -33 75 -66 75 -8 0 -33 -12 -54 -26
l-38 -26 -29 28 c-35 34 -36 40 -4 87 24 35 25 38 10 66 -11 23 -25 32 -57 38
l-43 9 0 49 c0 42 3 50 20 53 53 8 66 14 80 42 15 29 14 32 -10 67 -32 47 -31
53 4 87 l29 28 38 -26 c21 -14 46 -26 54 -26 33 0 59 30 66 75 l6 45 48 0 48
0 6 -45z m-619 -720 c0 -27 -3 -30 -30 -30 -21 0 -31 5 -33 18 -6 33 6 49 35
45 24 -3 28 -8 28 -33z m1013 -147 c32 -32 -8 -80 -48 -58 -34 18 -19 70 20
70 9 0 21 -5 28 -12z"/>
<path d="M683 999 c-113 -56 -112 -219 1 -270 23 -10 52 -19 66 -19 43 0 106
36 128 72 29 46 29 119 2 164 -22 35 -91 74 -131 74 -13 0 -43 -9 -66 -21z
m126 -23 c57 -30 83 -116 52 -174 -17 -33 -70 -62 -111 -62 -41 0 -94 29 -111
62 -18 33 -15 99 6 131 35 54 107 72 164 43z"/>
<path d="M2647 1045 c-88 -31 -137 -116 -137 -235 0 -82 20 -139 61 -177 61
-56 171 -70 241 -31 39 22 40 22 54 3 12 -17 14 -9 14 68 0 77 2 87 22 101 21
15 17 16 -67 15 -83 0 -87 -1 -55 -12 34 -12 35 -14 38 -66 2 -30 1 -65 -2
-77 -12 -46 -114 -57 -172 -19 -44 29 -68 98 -68 200 0 76 3 98 24 140 27 55
78 95 119 95 14 0 45 -9 68 -20 42 -18 46 -24 81 -110 10 -22 11 -20 11 21 1
26 4 61 7 78 7 34 -10 44 -19 10 -5 -20 -6 -20 -54 5 -54 29 -107 33 -166 11z"/>
<path d="M3202 1040 c-54 -33 -68 -99 -32 -158 11 -17 46 -48 77 -68 94 -59
123 -92 123 -136 0 -107 -143 -121 -184 -18 -9 22 -16 49 -16 60 0 11 -4 20
-10 20 -6 0 -10 -34 -10 -82 1 -74 2 -81 15 -64 13 18 16 18 49 2 71 -34 172
-12 200 43 23 44 20 103 -6 136 -12 15 -59 52 -104 81 -46 29 -88 62 -94 73
-16 31 -12 69 10 91 52 52 134 27 160 -47 8 -24 18 -43 22 -43 4 0 8 29 8 65
0 37 -4 65 -10 65 -5 0 -10 -7 -10 -15 0 -19 -17 -19 -50 0 -36 21 -99 18
-138 -5z"/>
<path d="M5641 1040 c-6 -14 -44 -110 -84 -214 -41 -104 -84 -200 -97 -213
l-22 -23 63 0 c59 0 62 1 39 13 -21 11 -25 20 -24 53 1 21 9 56 18 77 l16 37
79 0 79 0 28 -75 c28 -77 26 -89 -11 -98 -11 -3 17 -5 63 -6 l83 -1 -25 22
c-16 15 -51 92 -101 223 -94 244 -90 237 -104 205z m28 -167 c17 -45 31 -85
31 -88 0 -3 -31 -5 -70 -5 -38 0 -70 3 -70 8 0 18 66 180 71 174 4 -4 21 -44
38 -89z"/>
<path d="M5911 1049 c34 -13 39 -42 38 -234 -2 -183 -6 -207 -39 -216 -14 -4
14 -7 65 -7 72 0 84 2 63 10 -28 10 -28 10 -28 109 l0 99 39 0 c58 0 78 -23
100 -113 22 -89 42 -117 81 -117 26 0 88 39 63 40 -6 0 -15 -5 -18 -10 -12
-19 -33 -10 -43 18 -6 15 -16 47 -22 72 -15 59 -35 89 -68 101 l-26 10 41 19
c99 44 97 174 -3 216 -23 9 -72 14 -151 13 -88 0 -111 -3 -92 -10z m224 -29
c29 -27 39 -78 25 -130 -13 -47 -48 -70 -110 -70 l-40 0 0 103 c0 69 4 107 13
116 17 18 84 7 112 -19z"/>
<path d="M1530 1039 c13 -5 28 -15 32 -22 4 -7 8 -95 8 -197 0 -102 -4 -190
-8 -197 -4 -7 -19 -16 -32 -22 -20 -8 -11 -10 45 -10 59 1 66 2 42 11 -15 5
-29 19 -32 31 -3 12 -4 101 -3 197 l3 175 84 -213 c46 -118 87 -210 91 -205 4
4 40 96 80 203 40 107 74 197 76 199 2 2 4 -82 4 -187 l0 -190 -27 -10 c-22
-8 -9 -10 62 -10 50 0 80 3 67 5 -13 3 -27 16 -33 29 -10 27 -13 345 -3 381 3
12 18 26 33 32 22 8 16 10 -35 10 l-62 1 -57 -152 c-32 -84 -64 -169 -72 -188
l-15 -35 -54 140 c-30 77 -62 160 -72 185 l-18 45 -65 2 c-51 2 -59 0 -39 -8z"/>
<path d="M2110 1039 c13 -6 28 -15 32 -22 4 -7 8 -96 8 -198 0 -194 -4 -212
-45 -222 -11 -3 60 -5 157 -6 l178 -1 -2 65 c-3 73 -13 85 -23 25 -10 -58 -42
-80 -119 -80 -35 0 -67 5 -74 12 -8 8 -12 47 -12 110 l0 98 28 0 c34 0 72 -25
72 -48 0 -9 5 -24 10 -32 7 -10 10 16 10 83 0 63 -4 96 -10 92 -5 -3 -10 -16
-10 -29 0 -31 -30 -56 -68 -56 l-32 0 0 93 c0 59 4 97 12 105 14 14 106 16
142 2 18 -6 29 -22 37 -52 13 -45 16 -41 21 30 l4 42 -171 -1 c-122 0 -163 -3
-145 -10z"/>
<path d="M3510 1039 c13 -6 28 -15 32 -22 4 -7 8 -96 8 -198 0 -194 -4 -212
-45 -222 -11 -3 21 -5 70 -6 79 -1 87 1 65 12 l-25 13 0 204 0 204 25 13 c22
11 14 13 -65 12 -70 0 -84 -3 -65 -10z"/>
<path d="M3743 1038 l27 -10 -2 -206 -3 -206 -25 -13 c-22 -11 -18 -13 45 -12
39 1 61 4 50 6 -44 11 -45 17 -45 217 l0 191 143 -215 142 -215 5 222 c3 122
7 224 10 227 3 3 17 9 30 15 20 8 11 10 -45 10 -59 -1 -66 -2 -42 -11 15 -5
29 -19 32 -31 3 -12 4 -87 3 -166 l-3 -144 -115 176 -115 177 -60 -1 c-52 0
-57 -2 -32 -11z"/>
<path d="M4211 1039 c34 -13 39 -42 38 -229 -2 -178 -6 -202 -39 -211 -14 -4
31 -7 100 -8 112 -1 130 2 177 23 151 71 164 332 20 408 -37 20 -60 23 -182
25 -103 2 -133 0 -114 -8z m252 -26 c50 -29 70 -75 75 -167 5 -101 -10 -160
-52 -202 -34 -34 -102 -52 -151 -40 l-25 6 0 203 c0 149 3 206 13 216 16 17
99 7 140 -16z"/>
<path d="M4691 1039 c34 -13 39 -42 38 -229 -2 -178 -6 -202 -39 -211 -14 -4
55 -7 154 -8 159 -1 177 1 172 15 -3 9 -6 39 -7 67 l-1 52 -16 -50 c-20 -59
-45 -75 -119 -75 -84 0 -83 -2 -83 116 l0 104 30 0 c37 0 70 -31 70 -65 0 -14
5 -25 10 -25 6 0 10 37 10 90 0 53 -4 90 -10 90 -5 0 -10 -8 -10 -18 0 -34
-29 -62 -66 -62 l-34 0 0 99 c0 113 -1 111 86 111 45 0 59 -4 79 -25 14 -13
25 -36 25 -50 0 -14 5 -25 10 -25 6 0 10 25 10 55 l0 55 -167 -1 c-120 0 -161
-3 -142 -10z"/>
<path d="M5100 1037 l25 -13 3 -206 2 -206 -27 -10 c-21 -8 16 -11 145 -11
l172 -1 0 66 c0 41 -4 63 -10 59 -5 -3 -10 -15 -10 -25 0 -32 -21 -67 -47 -79
-13 -6 -51 -11 -84 -11 -55 0 -60 2 -69 26 -11 27 -14 344 -4 381 3 12 18 26
33 32 20 7 6 10 -64 10 -79 1 -87 -1 -65 -12z"/>
</g>
</svg>
