<?xml version="1.0" standalone="no"?>
<!DOCTYPE svg PUBLIC "-//W3C//DTD SVG 20010904//EN"
 "http://www.w3.org/TR/2001/REC-SVG-20010904/DTD/svg10.dtd">
<svg version="1.0" xmlns="http://www.w3.org/2000/svg"
 width="673.000000pt" height="158.000000pt" viewBox="0 0 673.000000 158.000000"
 preserveAspectRatio="xMidYMid meet">

<g transform="translate(0.000000,158.000000) scale(0.100000,-0.100000)"
fill="#000000" stroke="none">
<path d="M324 1459 c-10 -12 -19 -31 -19 -43 0 -22 33 -62 43 -52 3 4 -1 12
-10 19 -27 21 -27 41 0 70 14 15 21 27 15 27 -5 0 -18 -10 -29 -21z"/>
<path d="M370 1472 c0 -5 6 -15 14 -21 24 -20 26 -50 3 -66 -11 -8 -18 -17
-14 -21 3 -3 18 7 33 22 14 16 30 28 35 27 5 -2 9 2 9 7 0 6 -7 10 -15 10 -8
0 -15 3 -15 8 -1 11 -50 44 -50 34z"/>
<path d="M463 1424 c3 -4 65 -7 137 -7 126 0 131 -1 155 -25 31 -31 40 -26 13
8 -20 24 -24 25 -166 28 -81 2 -143 0 -139 -4z"/>
<path d="M768 1268 c-2 -65 -6 -83 -18 -84 -8 -1 -21 -2 -29 -3 -8 0 -12 -4
-8 -7 3 -4 33 -6 67 -6 34 0 64 2 67 6 4 3 0 7 -8 7 -8 1 -21 2 -29 3 -12 1
-16 19 -18 84 -2 45 -7 82 -12 82 -5 0 -10 -37 -12 -82z"/>
<path d="M1330 1275 c-21 -22 -22 -28 -11 -49 7 -13 24 -30 37 -37 21 -11 27
-10 49 11 14 13 23 25 21 28 -3 2 -15 -5 -27 -17 l-22 -20 -28 20 c-35 24 -36
36 -7 60 11 11 19 21 16 24 -2 3 -15 -6 -28 -20z"/>
<path d="M1407 1270 c33 -35 35 -36 26 -12 -9 22 -29 42 -43 42 -6 0 1 -13 17
-30z"/>
<path d="M705 1140 c-3 -5 -2 -18 4 -27 7 -14 9 -12 8 10 -2 30 -3 31 -12 17z"/>
<path d="M843 1122 c-1 -22 0 -24 9 -8 6 10 6 22 2 26 -5 5 -10 -3 -11 -18z"/>
<path d="M548 1106 c-22 -16 -12 -29 12 -14 13 9 25 5 55 -15 38 -26 74 -25
83 2 3 10 0 10 -18 1 -18 -10 -28 -8 -61 14 -44 30 -48 30 -71 12z"/>
<path d="M938 1094 c-31 -22 -40 -24 -58 -14 -18 9 -21 9 -18 -1 9 -27 45 -28
83 -2 30 20 42 24 55 15 24 -15 34 -2 12 14 -23 18 -31 17 -74 -12z"/>
<path d="M498 1059 c-23 -24 -23 -23 7 -67 29 -43 32 -67 9 -80 -9 -5 -12 -12
-7 -15 16 -10 33 8 37 41 2 17 0 33 -3 34 -4 2 -17 17 -29 35 -23 32 -23 32
-2 43 11 6 20 15 20 20 0 15 -13 11 -32 -11z"/>
<path d="M1030 1071 c0 -6 9 -15 20 -21 20 -11 20 -11 -2 -43 -13 -18 -26 -33
-29 -35 -11 -5 0 -65 14 -74 17 -11 27 -10 27 2 0 6 -4 10 -9 10 -24 0 -22 43
3 80 14 22 26 43 26 47 -1 12 -50 45 -50 34z"/>
<path d="M2748 1003 c7 -3 16 -2 19 1 4 3 -2 6 -13 5 -11 0 -14 -3 -6 -6z"/>
<path d="M3298 1003 c6 -2 18 -2 25 0 6 3 1 5 -13 5 -14 0 -19 -2 -12 -5z"/>
<path d="M5950 997 l25 -13 3 -194 c1 -107 0 -205 -3 -217 -3 -12 -15 -24 -28
-26 -12 -2 14 -4 58 -5 46 0 70 3 55 7 -24 7 -25 10 -28 110 l-3 103 55 -4
c30 -1 52 0 49 5 -2 4 -26 7 -54 7 l-49 0 0 104 c0 114 4 122 60 129 19 2 -10
4 -65 5 -87 2 -97 0 -75 -11z"/>
<path d="M1570 991 l25 -7 0 -214 0 -214 -25 -7 c-16 -4 -1 -7 40 -7 36 0 56
3 45 5 -44 11 -45 17 -45 221 0 109 4 192 9 186 4 -5 44 -100 87 -212 l79
-203 17 38 c9 21 13 40 8 43 -5 3 -41 90 -81 193 l-72 187 -56 -1 c-39 -1 -49
-3 -31 -8z"/>
<path d="M1953 983 c-3 -10 -8 -22 -11 -27 -3 -5 0 -6 6 -2 9 5 12 -43 12
-187 0 -203 -1 -209 -45 -220 -11 -2 18 -5 65 -5 49 0 74 3 60 7 l-25 7 -3
194 c-1 107 0 205 3 217 3 12 15 24 28 26 12 2 -2 5 -31 6 -42 1 -54 -3 -59
-16z"/>
<path d="M2150 991 l25 -7 0 -214 0 -214 -25 -7 c-14 -4 50 -7 143 -8 l167 -1
-1 53 c-1 49 -1 50 -10 20 -14 -49 -42 -63 -126 -63 -70 0 -74 1 -83 26 -6 14
-10 63 -10 110 l0 84 44 0 c35 0 48 -5 60 -22 15 -22 16 -21 16 27 0 48 -1 49
-16 27 -12 -17 -25 -22 -60 -22 l-44 0 0 79 c0 44 4 91 10 105 9 25 13 26 84
26 82 0 101 -10 112 -58 11 -49 12 -48 13 11 l1 57 -162 -1 c-90 -1 -152 -4
-138 -8z"/>
<path d="M2665 986 c-40 -17 -90 -75 -106 -123 -19 -54 -16 -170 6 -213 22
-45 53 -78 87 -96 40 -21 58 -17 22 5 -53 32 -69 80 -69 206 0 95 3 116 23
153 13 23 37 52 55 62 36 23 27 26 -18 6z"/>
<path d="M3219 971 c-23 -24 -29 -38 -29 -74 0 -57 27 -92 110 -142 75 -46
110 -87 110 -130 0 -46 -28 -77 -81 -86 l-44 -8 47 3 c60 4 95 27 115 73 30
72 -1 122 -119 197 -32 20 -67 46 -78 58 -27 29 -26 85 2 115 32 34 2 28 -33
-6z"/>
<path d="M3550 991 l25 -7 0 -214 0 -214 -25 -7 c-14 -4 12 -7 60 -7 47 1 75
3 62 5 -36 7 -42 41 -42 223 0 182 6 216 42 223 13 2 -15 4 -62 5 -48 0 -74
-3 -60 -7z"/>
<path d="M3775 991 c37 -16 70 -58 200 -257 l130 -199 5 220 5 219 25 13 c22
11 18 13 -40 11 -36 0 -55 -3 -43 -5 40 -8 44 -23 41 -193 l-3 -162 -118 181
-119 181 -51 -1 c-37 0 -46 -3 -32 -8z"/>
<path d="M4247 993 c13 -2 25 -14 28 -26 3 -12 4 -110 3 -217 l-3 -194 -25 -7
c-14 -4 25 -7 85 -6 61 0 90 2 65 4 -24 3 -50 9 -57 15 -18 15 -19 401 0 416
7 6 30 12 52 15 22 2 -7 4 -65 4 -58 0 -95 -2 -83 -4z"/>
<path d="M4727 993 c13 -2 25 -14 28 -26 3 -12 4 -110 3 -217 l-3 -194 -25 -7
c-14 -4 50 -7 143 -8 l167 -1 -1 63 c-1 61 -1 61 -10 22 -14 -60 -38 -75 -123
-75 -43 0 -77 5 -84 12 -8 8 -12 47 -12 110 l0 98 40 0 c27 0 47 -7 60 -20
l20 -20 0 53 c0 48 -1 50 -13 27 -10 -21 -21 -26 -60 -28 l-47 -3 0 93 c0 60
4 98 12 106 7 7 41 12 83 12 74 0 104 -15 106 -51 1 -19 17 20 18 44 1 16 -13
17 -161 16 -90 -1 -153 -4 -141 -6z"/>
<path d="M5140 987 l25 -13 0 -204 0 -204 -25 -13 c-21 -11 1 -13 143 -13
l167 0 0 28 c0 15 -5 34 -10 42 -8 13 -10 13 -10 -2 0 -9 -12 -26 -27 -38 -23
-18 -38 -20 -102 -18 l-76 3 0 210 0 209 25 13 c22 11 16 13 -55 13 -71 0 -77
-2 -55 -13z"/>
<path d="M5667 969 c-8 -19 -11 -38 -7 -44 5 -5 24 -50 43 -100 l34 -90 -86
-5 -86 -6 90 -4 90 -5 23 -64 c27 -76 26 -93 -8 -102 -15 -4 5 -7 54 -8 76 -1
78 0 57 17 -14 10 -54 99 -106 231 l-83 215 -15 -35z"/>
<path d="M6167 976 c25 -22 28 -30 28 -91 0 -61 -3 -69 -28 -91 -34 -29 -15
-32 30 -4 75 45 77 150 3 193 -45 27 -67 22 -33 -7z"/>
<path d="M4488 973 c47 -23 72 -64 85 -138 8 -48 8 -82 0 -132 -13 -76 -35
-110 -84 -135 -19 -10 -27 -18 -19 -18 30 0 95 46 124 87 24 35 30 55 34 116
7 116 -24 182 -102 218 -50 23 -84 25 -38 2z"/>
<path d="M2900 969 c0 -7 -9 -9 -21 -6 -16 4 -18 3 -9 -8 7 -8 18 -34 25 -57
l14 -43 0 63 c1 34 -1 62 -4 62 -3 0 -5 -5 -5 -11z"/>
<path d="M3404 950 c8 -14 16 -32 19 -40 3 -8 6 3 6 25 1 34 -2 41 -18 41 -17
0 -18 -3 -7 -26z"/>
<path d="M717 959 c-9 -5 -29 -22 -45 -36 l-27 -25 56 28 c31 16 54 32 52 37
-6 9 -14 9 -36 -4z"/>
<path d="M807 964 c-4 -4 11 -15 32 -26 25 -12 45 -32 56 -54 9 -19 20 -34 25
-34 24 0 -38 88 -78 109 -24 13 -27 13 -35 5z"/>
<path d="M422 881 c-22 -13 -18 -102 5 -115 22 -13 54 -16 47 -4 -3 4 -10 6
-15 2 -20 -12 -39 19 -39 62 0 30 5 46 18 53 9 6 13 10 7 11 -5 0 -16 -4 -23
-9z"/>
<path d="M650 871 c-5 -11 -9 -32 -9 -48 1 -25 2 -25 8 7 4 20 11 41 15 48 4
7 5 12 2 12 -3 0 -10 -9 -16 -19z"/>
<path d="M1123 879 c12 -7 17 -23 17 -53 0 -43 -19 -74 -39 -62 -5 4 -12 2
-15 -2 -7 -12 25 -9 47 4 14 8 19 23 19 59 0 45 -11 65 -37 65 -5 -1 -2 -5 8
-11z"/>
<path d="M1360 866 c-5 -13 -15 -26 -22 -29 -7 -2 -10 -8 -6 -11 9 -11 45 27
45 47 0 24 -6 21 -17 -7z"/>
<path d="M201 809 c-13 -11 -21 -22 -19 -25 3 -3 18 6 33 20 33 30 21 35 -14
5z"/>
<path d="M900 771 c0 -18 -62 -71 -83 -71 -15 0 -18 -3 -10 -11 14 -14 43 1
84 43 30 32 36 48 19 48 -5 0 -10 -4 -10 -9z"/>
<path d="M640 766 c0 -8 61 -66 81 -76 15 -9 24 -9 32 -1 8 8 5 11 -11 11 -11
0 -36 16 -55 35 -30 31 -47 42 -47 31z"/>
<path d="M495 750 c-3 -5 1 -10 9 -10 8 0 18 -9 21 -20 7 -23 -2 -60 -16 -60
-5 0 -9 -7 -9 -15 0 -8 -4 -15 -10 -15 -18 0 -10 -25 13 -39 21 -13 21 -13 5
5 -15 18 -15 21 11 52 27 32 32 56 17 80 -4 6 -4 12 1 12 9 0 -19 20 -29 20
-4 0 -10 -4 -13 -10z"/>
<path d="M1032 751 c-8 -4 -13 -11 -13 -15 1 -3 1 -7 0 -8 -8 -26 -1 -54 22
-80 26 -31 26 -34 11 -52 -16 -18 -16 -18 6 -5 21 13 31 39 14 39 -4 0 -16 14
-26 31 -20 34 -15 79 10 79 8 0 12 5 9 10 -7 12 -16 12 -33 1z"/>
<path d="M6166 708 c8 -24 21 -69 29 -101 17 -64 44 -85 87 -67 23 9 23 9 1 9
-22 1 -29 15 -53 111 -12 46 -44 90 -66 90 -9 0 -8 -10 2 -42z"/>
<path d="M2816 729 c35 -10 44 -29 44 -98 0 -28 -6 -52 -17 -64 -18 -20 -18
-20 11 -2 28 18 29 18 42 0 12 -17 14 -8 14 68 0 71 3 88 18 96 12 8 -4 10
-63 10 -65 -1 -74 -3 -49 -10z"/>
<path d="M2352 700 c0 -14 2 -19 5 -12 2 6 2 18 0 25 -3 6 -5 1 -5 -13z"/>
<path d="M3190 609 c0 -44 2 -47 30 -51 27 -4 29 -3 15 12 -8 8 -21 31 -29 50
l-15 35 -1 -46z"/>
<path d="M5521 598 c0 -9 -13 -26 -27 -37 l-27 -21 64 1 c35 1 54 4 42 6 -25
5 -39 19 -46 48 -3 15 -5 16 -6 3z"/>
<path d="M610 570 c-31 -24 -56 -25 -69 -2 -6 9 -11 12 -11 6 0 -6 9 -19 19
-28 19 -17 22 -17 70 10 49 28 50 28 70 9 14 -12 19 -25 15 -39 -4 -17 -3 -18
5 -6 12 17 5 51 -13 62 -20 14 -61 8 -86 -12z"/>
<path d="M864 582 c-18 -11 -25 -45 -13 -62 8 -12 9 -11 5 6 -4 14 1 27 15 39
20 19 21 19 70 -9 48 -27 51 -27 70 -10 10 9 19 22 19 28 0 6 -5 3 -11 -6 -13
-23 -38 -22 -69 2 -25 20 -66 26 -86 12z"/>
<path d="M3805 570 c-4 -6 -17 -15 -29 -20 -15 -6 -4 -9 39 -8 33 0 51 2 40 5
-11 3 -25 11 -32 19 -8 11 -13 12 -18 4z"/>
<path d="M2728 533 c12 -2 32 -2 45 0 12 2 2 4 -23 4 -25 0 -35 -2 -22 -4z"/>
<path d="M716 492 c-3 -5 1 -15 9 -22 16 -14 20 -3 6 19 -5 8 -11 9 -15 3z"/>
<path d="M826 484 c-9 -23 -2 -28 13 -10 7 8 8 17 3 20 -6 3 -13 -1 -16 -10z"/>
<path d="M170 463 c-21 -9 -40 -30 -33 -36 3 -3 12 0 20 8 19 20 36 19 61 -4
28 -23 28 -36 0 -55 -12 -9 -18 -16 -12 -16 13 0 44 33 44 46 0 10 -52 65 -61
63 -2 0 -11 -3 -19 -6z"/>
<path d="M768 395 c2 -41 7 -75 12 -75 5 0 10 34 12 75 2 62 0 75 -12 75 -12
0 -14 -13 -12 -75z"/>
<path d="M124 407 c3 -10 6 -22 6 -26 0 -10 60 -44 67 -37 3 3 -6 11 -21 17
-14 7 -26 15 -26 19 0 3 -7 15 -16 26 -14 17 -15 17 -10 1z"/>
<path d="M770 283 c0 -14 54 -63 69 -63 17 1 16 2 -38 39 -11 8 -18 18 -15 23
3 4 0 8 -5 8 -6 0 -11 -3 -11 -7z"/>
<path d="M1148 259 c-25 -25 -32 -27 -97 -24 -39 2 -74 -1 -77 -7 -4 -6 25 -9
75 -7 76 2 84 0 109 -25 33 -30 49 -32 78 -8 20 17 29 52 12 52 -4 0 -8 -7 -8
-16 0 -20 -20 -39 -41 -39 -37 0 -56 40 -35 73 9 16 58 16 75 0 11 -11 11 -9
1 8 -18 29 -59 26 -92 -7z"/>
<path d="M867 228 c2 -5 24 -8 49 -8 24 0 44 3 44 8 0 4 -22 7 -49 7 -27 0
-47 -3 -44 -7z"/>
</g>
</svg>
